<svg width="24" height="24" viewBox="0 0 24 24" fill="none" xmlns="http://www.w3.org/2000/svg">
<g id="logos:whatsapp-icon" clip-path="url(#clip0_149_469)">
<path id="Vector" d="M0.511219 11.8564C0.510661 13.8729 1.03754 15.8418 2.03941 17.5772L0.415405 23.5067L6.4835 21.9156C8.16185 22.8293 10.0423 23.3081 11.9533 23.3082H11.9583C18.2667 23.3082 23.4018 18.1749 23.4045 11.8654C23.4057 8.80801 22.2162 5.93304 20.0548 3.77006C17.8939 1.60727 15.02 0.415549 11.9578 0.414154C5.64871 0.414154 0.513917 5.54718 0.511312 11.8564" fill="url(#paint0_linear_149_469)"/>
<path id="Vector_2" d="M0.102587 11.8527C0.101935 13.9417 0.647703 15.981 1.68528 17.7786L0.00305176 23.9207L6.28873 22.2726C8.02063 23.2168 9.97059 23.7147 11.9548 23.7154H11.9599C18.4946 23.7154 23.8142 18.3975 23.817 11.8621C23.8181 8.69488 22.5857 5.71656 20.3472 3.47609C18.1084 1.23591 15.1317 0.00130233 11.9599 0C5.42407 0 0.105191 5.31721 0.102587 11.8527ZM3.84584 17.469L3.61114 17.0965C2.62454 15.5277 2.1038 13.7149 2.10454 11.8534C2.10668 6.4213 6.52752 2.00186 11.9636 2.00186C14.5962 2.00298 17.0702 3.02921 18.9311 4.89116C20.7918 6.7533 21.8157 9.22865 21.8151 11.8614C21.8126 17.2935 17.3917 21.7135 11.9599 21.7135H11.956C10.1873 21.7126 8.45273 21.2376 6.93998 20.34L6.57998 20.1265L2.84994 21.1045L3.84584 17.4689V17.469Z" fill="url(#paint1_linear_149_469)"/>
<path id="Vector_3" d="M8.99633 6.89749C8.77438 6.40419 8.5408 6.39424 8.32973 6.38559C8.15689 6.37814 7.95931 6.3787 7.76191 6.3787C7.56433 6.3787 7.24331 6.45303 6.97196 6.74931C6.70033 7.04587 5.93494 7.76252 5.93494 9.2201C5.93494 10.6778 6.99661 12.0864 7.14461 12.2843C7.2928 12.4818 9.19419 15.5687 12.2055 16.7562C14.7082 17.7431 15.2175 17.5468 15.7607 17.4973C16.304 17.448 17.5136 16.7808 17.7604 16.089C18.0074 15.3973 18.0074 14.8044 17.9334 14.6805C17.8593 14.557 17.6617 14.4829 17.3654 14.3348C17.0691 14.1866 15.6125 13.4699 15.341 13.371C15.0694 13.2722 14.8719 13.2229 14.6743 13.5195C14.4767 13.8157 13.9094 14.4829 13.7364 14.6805C13.5637 14.8785 13.3907 14.9032 13.0946 14.755C12.7981 14.6063 11.844 14.2939 10.712 13.2847C9.83122 12.4994 9.23661 11.5296 9.06377 11.2329C8.89094 10.9367 9.04526 10.7762 9.19382 10.6286C9.32694 10.4958 9.49019 10.2826 9.63847 10.1097C9.78619 9.93666 9.83549 9.81321 9.93429 9.61563C10.0332 9.41786 9.98368 9.24484 9.90973 9.09666C9.83549 8.94847 9.25977 7.48326 8.99633 6.89749Z" fill="white"/>
</g>
<defs>
<linearGradient id="paint0_linear_149_469" x1="1149.87" y1="2309.67" x2="1149.87" y2="0.414154" gradientUnits="userSpaceOnUse">
<stop stop-color="#1FAF38"/>
<stop offset="1" stop-color="#60D669"/>
</linearGradient>
<linearGradient id="paint1_linear_149_469" x1="1190.7" y1="2392.07" x2="1190.7" y2="0" gradientUnits="userSpaceOnUse">
<stop stop-color="#F9F9F9"/>
<stop offset="1" stop-color="white"/>
</linearGradient>
<clipPath id="clip0_149_469">
<rect width="23.82" height="24" fill="white"/>
</clipPath>
</defs>
</svg>
